<svg xmlns="http://www.w3.org/2000/svg" width="238" height="238" viewBox="1.408 0.904 238 238" overflow="visible"><path fill="#FFF" stroke="#FFF" stroke-width="4" stroke-miterlimit="10" d="M120.957 3.932c-64.06 0-116.174 52.115-116.174 116.17 0 64.06 52.115 116.173 116.173 116.173 64.06 0 116.173-52.114 116.173-116.172 0-64.056-52.114-116.17-116.173-116.17zm0 224.596c-59.79 0-108.428-48.638-108.428-108.425 0-59.788 48.638-108.426 108.427-108.426 59.787 0 108.427 48.64 108.427 108.426 0 59.787-48.64 108.425-108.427 108.425z"/><path fill="#FFF" d="M118.05 174.633h-11.16v-55.195h-6.132V109.12h6.133V83.06c0-5.44 0-12.267 2.927-17.008 3.623-5.854 10.18-8.223 16.87-8.223 2.646 0 5.298.557 7.944 1.393v11.29c-2.51-.835-4.74-1.533-7.524-1.533-9.057 0-9.057 6.412-9.057 17.98v22.162h16.58v10.317h-16.58v55.193z"/></svg>