<svg xmlns="http://www.w3.org/2000/svg" width="242" height="297" viewBox="0 0 242 297" overflow="visible"><path fill="#fff" stroke="#fff" stroke-width="4" stroke-miterlimit="10" d="M61.202 19.707C4.764 52.292-14.646 124.682 17.919 181.086c28.48 49.328 87.43 70.342 139.518 53.039l-4.029-6.979c-48.231 15.228-102.368-4.447-128.667-49.998C-5.653 124.503 12.462 56.94 65.14 26.526 117.802-3.878 185.371 14.215 215.765 66.86c26.836 46.482 15.846 104.594-23.35 138.49l4.008 6.939c42.93-36.166 55.18-99.114 26.164-149.369C190.023 6.517 117.626-12.869 61.202 19.707z"/><path fill="#fff" stroke="#fff" stroke-width="5" stroke-miterlimit="10" d="M151.16 187.356l48.123 83.352c.996 1.727 3.338 2.239 5.221 1.151 1.887-1.089 2.609-3.371 1.613-5.097l-48.123-83.352"/><path fill="#fff" stroke="#fff" stroke-width="6" stroke-miterlimit="10" d="M83.286 59.545c-35.748 20.64-48.045 66.489-27.42 102.211 20.621 35.719 66.477 47.995 102.227 27.355 35.732-20.631 48.027-66.48 27.406-102.198-20.624-35.722-66.478-47.998-102.213-27.368zm72.313 125.248c-33.369 19.266-76.166 7.807-95.413-25.531C40.937 125.92 52.41 83.13 85.78 63.864c33.354-19.257 76.151-7.799 95.399 25.543 19.248 33.338 7.774 76.129-25.58 95.386z"/></svg>