<svg xmlns="http://www.w3.org/2000/svg" width="242" height="242" viewBox="0 0 242 242" overflow="visible"><path fill="#5BA0D0" stroke="#5BA0D0" stroke-width="6" stroke-miterlimit="10" d="M120.523 3.732c-64.34 0-116.68 52.338-116.68 116.67 0 64.34 52.34 116.678 116.68 116.678 64.332 0 116.67-52.34 116.67-116.677 0-64.333-52.338-116.67-116.67-116.67zm0 225.57c-60.053 0-108.9-48.85-108.9-108.9 0-60.043 48.847-108.892 108.9-108.892 60.045 0 108.894 48.85 108.894 108.893 0 60.05-48.85 108.9-108.894 108.9z"/><path fill="#5BA0D0" stroke="#5BA0D0" stroke-width="6" stroke-miterlimit="10" d="M122.524 199l62.3-62.152c1.52-1.517 1.522-3.977.005-5.497-1.518-1.52-3.98-1.523-5.5-.005l-55.65 55.52.167-142.293c.002-2.15-1.735-3.893-3.885-3.895-2.148-.003-3.894 1.736-3.896 3.886l-.168 142.292-55.53-55.65c-1.517-1.52-3.978-1.524-5.5-.006-.76.757-1.14 1.75-1.142 2.747 0 .994.378 1.99 1.135 2.75l62.166 62.298c1.516 1.52 3.978 1.522 5.498.005z"/></svg>