<svg xmlns="http://www.w3.org/2000/svg" width="242" height="242" viewBox="0 0 242 242" overflow="visible"><circle fill="#5BA0D0" cx="120.39" cy="120.674" r="120.39"/><path fill="#5BA0D0" d="M120.39 0C54.01 0 0 54.007 0 120.39c0 66.387 54.01 120.39 120.39 120.39s120.393-54.003 120.393-120.39C240.783 54.006 186.77 0 120.39 0zm0 232.754c-61.958 0-112.364-50.406-112.364-112.365S58.432 8.025 120.39 8.025 232.757 58.43 232.757 120.39 182.35 232.753 120.39 232.753z"/><path fill="#FFF" stroke="#FFF" stroke-width="8" stroke-miterlimit="10" d="M176.864 65.563H63.918c-2.218 0-4.013-1.795-4.013-4.01 0-2.217 1.795-4.014 4.013-4.014h112.945c2.218 0 4.013 1.796 4.013 4.012 0 2.216-1.794 4.01-4.012 4.01zM176.864 102.898H63.918c-2.218 0-4.013-1.795-4.013-4.013 0-2.214 1.795-4.013 4.013-4.013h112.945c2.218 0 4.013 1.8 4.013 4.013 0 2.218-1.794 4.013-4.012 4.013zM176.864 141.084H63.918c-2.218 0-4.013-1.795-4.013-4.013 0-2.213 1.795-4.012 4.013-4.012h112.945c2.218 0 4.013 1.8 4.013 4.013 0 2.22-1.794 4.014-4.012 4.014zM174.51 181.272H66.272c-3.52 0-6.366-1.795-6.366-4.014 0-2.214 2.848-4.013 6.366-4.013H174.51c3.52 0 6.366 1.8 6.366 4.013 0 2.22-2.847 4.014-6.366 4.014z"/></svg>