<svg xmlns="http://www.w3.org/2000/svg" width="242" height="242" viewBox="0 0 242 242" overflow="visible"><path fill="#5BA0D0" stroke="#5BA0D0" stroke-width="6" stroke-miterlimit="10" d="M120.523 3.732c-64.34 0-116.68 52.338-116.68 116.67 0 64.34 52.34 116.678 116.68 116.678 64.332 0 116.67-52.34 116.67-116.677 0-64.333-52.338-116.67-116.67-116.67zm0 225.57c-60.053 0-108.9-48.85-108.9-108.9 0-60.043 48.847-108.892 108.9-108.892 60.045 0 108.894 48.85 108.894 108.893 0 60.05-48.85 108.9-108.894 108.9z"/><path fill="#5BA0D0" d="M176.864 58.187H63.918c-2.218 0-4.013-1.795-4.013-4.01 0-2.217 1.795-4.014 4.013-4.014h112.945c2.218 0 4.013 1.797 4.013 4.013s-1.794 4.01-4.012 4.01zM176.864 102.33H63.918c-2.218 0-4.013-1.794-4.013-4.012 0-2.214 1.795-4.013 4.013-4.013h112.945c2.218 0 4.013 1.8 4.013 4.013 0 2.218-1.794 4.013-4.012 4.013zM176.864 146.474H63.918c-2.218 0-4.013-1.795-4.013-4.013 0-2.213 1.795-4.012 4.013-4.012h112.945c2.218 0 4.013 1.8 4.013 4.013 0 2.22-1.794 4.014-4.012 4.014zM132.14 190.618H63.918c-2.218 0-4.013-1.795-4.013-4.014 0-2.214 1.795-4.013 4.013-4.013h68.222c2.218 0 4.013 1.8 4.013 4.014 0 2.22-1.795 4.014-4.013 4.014z"/></svg>