<svg xmlns="http://www.w3.org/2000/svg" width="242" height="297" viewBox="0 0 242 297" overflow="visible"><path fill="#fff" stroke="#fff" stroke-width="5" stroke-miterlimit="10" d="M120.76 3.94C56.418 3.94 4.072 56.284 4.072 120.624c0 56.278 40.044 103.378 93.138 114.304v-7.964c-48.77-10.795-85.358-54.37-85.358-106.34 0-60.052 48.855-108.908 108.908-108.908 60.054 0 108.91 48.855 108.91 108.907 0 53.032-38.1 97.322-88.36 106.96v7.92c54.575-9.736 96.137-57.546 96.137-114.88C237.447 56.285 185.1 3.94 120.76 3.94z"/><path fill="#fff" stroke="#fff" stroke-width="5" stroke-miterlimit="10" d="M116.066 82.552L53.83 144.785c-1.52 1.52-1.52 3.983 0 5.502 1.52 1.52 3.98 1.52 5.5 0l55.596-55.596V286.57c0 2.147 1.742 3.89 3.888 3.89 2.148 0 3.89-1.742 3.89-3.89V94.692l55.595 55.596c1.517 1.52 3.978 1.52 5.5 0 .76-.76 1.14-1.757 1.14-2.752s-.38-1.99-1.14-2.75l-62.232-62.233c-1.52-1.52-3.98-1.52-5.502 0z"/></svg>