<!DOCTYPE svg PUBLIC "-//W3C//DTD SVG 1.1//EN" "http://www.w3.org/Graphics/SVG/1.1/DTD/svg11.dtd" [
	<!ENTITY ns_flows "http://ns.adobe.com/Flows/1.0/">
]><svg xmlns="http://www.w3.org/2000/svg" width="239" height="239" viewBox="0.844 0.732 239 239" overflow="visible"><path fill="#5BA0D0" d="M119.464 3.58C55.358 4.4 3.874 57.225 4.696 121.332c.823 64.1 53.648 115.588 117.753 114.764 64.108-.82 115.59-53.646 114.767-117.748-.82-64.11-53.643-115.595-117.753-114.77zm2.885 224.766c-59.834.768-109.135-47.283-109.903-107.113C11.68 61.4 59.73 12.098 119.562 11.33c59.834-.768 109.137 47.284 109.906 107.118.766 59.828-47.285 109.13-107.12 109.898z"/><path fill="#5BA0D0" d="M81.84 93.252c.337-3.217.847-7.45 3.218-12.87 7.958-19.98 27.26-22.183 36.072-22.183 22.86 0 38.947 14.053 38.947 33.023 0 13.712-7.79 21.67-18.29 30.986-11.685 10.332-13.72 12.868-14.06 29.464h-14.22c-.848-20.994 4.57-27.09 19.135-39.794 7.117-6.264 12.197-11.176 12.197-19.643 0-11.177-9.993-21.843-23.544-21.843-14.564 0-21.844 10.16-24.216 24.553l-15.24-1.695zm30.653 71.29h16.93v16.936h-16.93v-16.936z"/></svg>