<svg xmlns="http://www.w3.org/2000/svg" width="238" height="238" viewBox="1.408 0.904 238 238" overflow="visible"><path fill="#5BA0D0" stroke="#5BA0D0" stroke-width="4" stroke-miterlimit="10" d="M121 4.244c-63.917 0-115.917 52-115.917 115.917 0 63.92 52 115.922 115.917 115.922 63.915 0 115.915-52.003 115.915-115.92 0-63.918-52-115.918-115.915-115.918zm0 224.107c-59.657 0-108.19-48.53-108.19-108.19C12.81 60.506 61.343 11.973 121 11.973c59.655 0 108.187 48.533 108.187 108.19 0 59.658-48.53 108.19-108.187 108.19z"/><path fill="#5BA0D0" d="M96.378 73.636c0 4.45-3.618 7.927-7.928 7.927-4.31 0-7.927-3.477-7.927-7.927 0-4.31 3.618-7.928 7.927-7.928 4.31 0 7.928 3.617 7.928 7.928zm-2.366 89.99H82.89V98.25h11.123v65.373zM120.72 106.18h.28c4.587-6.26 10.567-9.735 18.637-9.735 18.077 0 22.25 13.075 22.25 28.372v38.808h-11.124v-36.86c0-10.57-.837-20.03-13.77-20.03-15.3 0-16.273 14.188-16.273 25.87v31.02h-11.124V98.252h11.124v7.928z"/></svg>