<!DOCTYPE svg PUBLIC "-//W3C//DTD SVG 1.1//EN" "http://www.w3.org/Graphics/SVG/1.1/DTD/svg11.dtd" [
	<!ENTITY ns_flows "http://ns.adobe.com/Flows/1.0/">
]><svg xmlns="http://www.w3.org/2000/svg" width="239" height="239" viewBox="0.844 0.732 239 239" overflow="visible"><path fill="#5BA0D0" stroke="#5BA0D0" stroke-width="6" stroke-miterlimit="10" d="M120.523 3.732c-64.34 0-116.68 52.338-116.68 116.67 0 64.34 52.34 116.678 116.68 116.678 64.332 0 116.67-52.34 116.67-116.677 0-64.333-52.338-116.67-116.67-116.67zm0 225.57c-60.053 0-108.9-48.85-108.9-108.9 0-60.043 48.847-108.892 108.9-108.892 60.045 0 108.894 48.85 108.894 108.893 0 60.05-48.85 108.9-108.894 108.9z"/><path fill="#5BA0D0" stroke="#5BA0D0" stroke-width="6" stroke-miterlimit="10" d="M201.053 117.654L138.827 55.43c-1.52-1.52-3.98-1.52-5.497 0-1.52 1.518-1.52 3.98 0 5.498l55.585 55.586H46.625c-2.15 0-3.892 1.74-3.892 3.89 0 2.147 1.74 3.888 3.89 3.888h142.293l-55.585 55.592c-1.52 1.518-1.52 3.98 0 5.5.76.757 1.755 1.138 2.75 1.138.994 0 1.99-.38 2.748-1.14l62.226-62.23c1.52-1.517 1.52-3.98 0-5.498z"/></svg>