<svg xmlns="http://www.w3.org/2000/svg" width="238" height="238" viewBox="1.408 0.904 238 238" overflow="visible"><path fill="#FFF" stroke="#FFF" stroke-width="3" stroke-miterlimit="10" d="M120.568 3.404c-64.327 0-116.66 52.334-116.66 116.66 0 64.31 52.333 116.646 116.66 116.646 64.324 0 116.656-52.335 116.656-116.646 0-64.326-52.332-116.66-116.656-116.66zm0 225.528c-60.04 0-108.882-48.844-108.882-108.868 0-60.038 48.844-108.882 108.882-108.882 60.035 0 108.877 48.845 108.877 108.882 0 60.024-48.842 108.868-108.877 108.868z"/><path fill="none" stroke="#FFF" stroke-width="6" stroke-linecap="round" stroke-linejoin="round" stroke-miterlimit="10" d="M183.51 84.728c-4.707 2.088-9.766 3.503-15.08 4.136 5.42-3.25 9.582-8.395 11.542-14.523-5.07 3.006-10.684 5.194-16.67 6.367-4.786-5.098-11.612-8.287-19.162-8.287-14.5 0-26.253 11.756-26.253 26.253 0 2.06.234 4.064.68 5.983-21.82-1.096-41.165-11.547-54.11-27.432-2.265 3.88-3.558 8.387-3.558 13.2 0 9.11 4.637 17.143 11.682 21.853-4.307-.134-8.355-1.318-11.894-3.283v.33c0 12.717 9.048 23.326 21.058 25.74-2.203.6-4.52.928-6.915.928-1.69 0-3.335-.167-4.94-.475 3.342 10.43 13.036 18.01 24.52 18.222-8.98 7.032-20.302 11.234-32.603 11.234-2.12 0-4.21-.126-6.26-.374 11.617 7.453 25.413 11.796 40.242 11.796 48.286 0 74.693-39.984 74.693-74.68 0-1.14-.028-2.27-.074-3.396 5.13-3.703 9.582-8.326 13.1-13.592zm0 0"/></svg>