<?xml version="1.0" encoding="utf-8"?>
<!-- Generator: Adobe Illustrator 15.1.0, SVG Export Plug-In . SVG Version: 6.00 Build 0)  -->
<!DOCTYPE svg PUBLIC "-//W3C//DTD SVG 1.1//EN" "http://www.w3.org/Graphics/SVG/1.1/DTD/svg11.dtd">
<svg version="1.1" id="Layer_1" xmlns="http://www.w3.org/2000/svg" xmlns:xlink="http://www.w3.org/1999/xlink" x="0px" y="0px"
	 width="33px" height="36px" viewBox="0 0 33 36" enable-background="new 0 0 33 36" xml:space="preserve">
<path fill="#77CDCE" d="M5.954,10.9c3.014-2.605,4.471-3.309,6.262-3.844c1.787-0.539,11.362-1.521,14.313,1.967
	c2.949,3.491,4.826,5.1,5.096,6.619c0.271,1.52,1.342,5.992,0.451,7.333c-0.896,1.344-4.387,7.783-6.532,9.127
	c-2.151,1.352-6.42,3.715-12.437,3.578C8.994,35.593,5.147,32.289,3,28.885c-2.145-3.391-4.38-11.624,2.953-17.981 M11.144,13.407
	c-2.594,1.614-4.473,4.83-4.651,6.356c-0.18,1.526,0.178,6.707,2.953,9.034c2.771,2.327,9.568,2.327,12.876-0.801
	c2.765-2.615,4.896-5.595,3.848-10.111c-0.895-3.842-4.119-5.807-6.531-5.895c-2.414-0.087-5.186-0.625-8.496,1.439"/>
<path fill="#09B3B0" d="M2.735,0.436C1.075,1.481-0.753,4.461,0.32,6.071c1.072,1.603,4.113,2.315,5.633,1.427
	C7.472,6.597,8.1,3.206,7.472,1.854C6.848,0.515,4.436-0.649,2.735,0.415 M15.524,16.783c-1.329,0.326-3.056,0.776-3.669,3.479
	c-0.625,2.777,1.077,5.094,4.208,4.829c2.229-0.188,4.292-2.864,4.024-4.918c-0.269-2.052-2.772-3.841-4.564-3.403"/>
</svg>
