<!DOCTYPE svg PUBLIC "-//W3C//DTD SVG 1.1//EN" "http://www.w3.org/Graphics/SVG/1.1/DTD/svg11.dtd" [
	<!ENTITY ns_flows "http://ns.adobe.com/Flows/1.0/">
]><svg xmlns="http://www.w3.org/2000/svg" width="470" height="216" viewBox="0 0 470 216" overflow="visible"><path fill="#004B8D" d="M123 84h-15.3c-1.4 0-2.7-1.2-2.7-2.7 0-1.5 1.3-2.8 2.7-2.8H144c1.4 0 2.7 1.3 2.7 2.8 0 1.5-1.3 2.7-2.8 2.7h-15.2v44c0 1.7-1.3 3-3 3s-3-1.3-3-3V84zM164.8 81c0-1.5 1.3-2.8 3-2.8 1.5 0 3 1.3 3 3v20.5h30V81c0-1.5 1.3-2.8 3-2.8 1.5 0 3 1.3 3 3v47c0 1.5-1.5 2.8-3 2.8-1.7 0-3-1.3-3-3v-20.8h-30v21c0 1.5-1.5 2.8-3 2.8-1.7 0-3-1.3-3-3V81zM228.8 127.7V81.5c0-1.6 1.3-3 3-3H264c1.6 0 2.8 1.2 2.8 2.7 0 1.5-1.2 2.7-2.7 2.7h-29.3v17.7h26c1.5 0 2.7 1.3 2.7 2.7 0 1.5-1.2 2.7-2.7 2.7h-26v18.3h29.8c1.4 0 2.6 1.2 2.6 2.7s-1 2.7-2.5 2.7h-32.8c-1.6 0-3-1.4-3-3zM283 126.8l21-46.3c.8-1.6 2-2.6 3.8-2.6h.3c2 0 3 1 3.8 2.5l21 46.2c.3.5.5 1 .5 1.5 0 1.6-1.3 2.8-3 2.8-1.3 0-2.2-1-2.8-2l-5.4-12h-28.5l-5.4 12c-.5 1.3-1.4 2-2.8 2-1.5 0-2.6-1.2-2.6-2.6 0-.5 0-1 .3-1.6zm36.8-15.3l-12-26.6-12 26.5h24z"/><path fill="#0089CB" d="M119.7 154.5c0-1.6 1.3-3 3-3 1.5 0 2.8 1.4 2.8 3v47c0 1.6-1.3 3-3 3-1.5 0-2.8-1.4-2.8-3v-47zM148.3 154.6c0-1.6 1.3-3 3-3h.7c1.3 0 2 .7 3 1.8l31.6 40.4v-39.4c0-1.5 1.3-3 3-3 1.5 0 2.8 1.5 2.8 3v47c0 1.7-1.2 3-2.7 3h-.3c-1.3 0-2.2-1-3-2L154 161.2v40.5c0 1.6-1.3 3-3 3-1.5 0-2.7-1.4-2.7-3v-47zM212.7 197.8c-.7-.5-1-1.3-1-2.3 0-1.6 1-3 2.7-3 .7 0 1.4.4 1.8.8 5 4.2 9.8 6.2 16.5 6.2 7 0 11.6-3.7 11.6-9 0-5-2.6-7.6-13.6-10-12-2.5-17.5-6.4-17.5-15 0-8.3 7.2-14.3 17-14.3 7 0 12 1.7 16.8 5 .5.5 1.2 1.4 1.2 2.5 0 1.5-1.2 2.8-2.8 2.8-.7 0-1.2 0-1.7-.5-4.4-3.2-8.7-4.6-13.5-4.6-6.8 0-11 3.8-11 8.5 0 5 2.6 7.7 14 10 11.7 2.7 17 7 17 15 0 9-7.4 14.8-17.8 14.8-7.6 0-14-2.4-19.7-7zM270 154.5c0-1.6 1.5-3 3-3 1.7 0 3 1.4 3 3v47c0 1.6-1.3 3-3 3-1.5 0-3-1.4-3-3v-47zM296.4 178c0-14.3 10.5-27 26.2-27 7.8 0 13 2 17.8 5.6.6.5 1 1.3 1 2.4 0 1.6-1.2 3-2.8 3-.6 0-1.2-.3-1.8-.8-3.7-2.8-8-4.8-14.5-4.8-11.5 0-19.8 9.8-19.8 21.4v.2c0 12.4 8 21.6 20.6 21.6 6 0 11.6-2.3 15.2-5.2v-13h-14c-1.4 0-2.6-1-2.6-2.5 0-1.6 1.2-2.8 2.6-2.8H341c1.5 0 3 1.3 3 3V195c0 1.4-.8 2.7-2.2 3.6-4.7 3.5-11 6.3-19 6.3-16.3 0-26.4-12-26.4-27zM364.6 154.5c0-1.6 1.3-3 3-3 1.5 0 2.8 1.4 2.8 3V175h30v-20.5c0-1.6 1.5-3 3-3 1.7 0 3 1.4 3 3v47c0 1.6-1.3 3-3 3-1.5 0-3-1.4-3-3v-21h-30v21c0 1.6-1.3 3-3 3-1.5 0-2.8-1.4-2.8-3v-47zM442.3 157.3h-15c-1.6 0-3-1.2-3-2.6s1.4-2.8 3-2.8h36c1.6 0 3 1.2 3 2.7s-1.4 2.6-3 2.6h-15v44c0 1.8-1.4 3-3 3s-3-1.2-3-3v-44z"/><path fill="#004B8D" d="M41 66.3h-.3C18.2 66.3 0 84.5 0 107V171c0 22.4 18.2 40.6 40.7 40.6h5.5c22.4 0 40.7-18.2 40.7-40.6V107C87 84.4 68.5 66.2 46 66.2H46m0 5h.2c19.7 0 35.7 16 35.7 35.6V171C82 191 66 207 46 207h-5.5C21 207 5 191 5 171V107C5 87 21 71 40.7 71h.2"/><path fill="#004B8D" d="M84.6 115.4C73 103 59 95.4 43.8 94.6h-1-.2c-19.2.7-32 11.7-40.4 20.8-.3.3-.4.7-.4 1.2 0 .4.2.8.5 1 8 7.6 17 15.7 31.4 18.6 3 .6 5.6 1 8.4 1 0 0 1.5.2 2.8 0 3 0 6-.5 8.4-1 14.5-3 23.3-11 31.4-18.5.3-.3.4-.7.4-1 0-.6 0-1-.4-1.3m-74 1.3c4.4-4.7 9.3-10 17.2-13.2-2.8 3.6-4.3 8-4.3 12.6 0 5.2 2 10 5.4 13.6-8.3-3-13.2-8-18.4-13M43.4 131c-8 0-14.8-7-15-15 0-8.4 6.6-15.2 15-15.2 8.3 0 15 6.7 15 15 0 8.2-6.8 15-15 15m15-1.6c3.2-3.7 5-8.4 5-13.3 0-4.3-1.3-8.2-3.6-11.5 6.3 2.8 10.8 7 15.8 12.2-5 4.7-9.6 9.5-17.3 12.5"/><path fill="#004B8D" d="M43.4 106.5c-1 0-2 .2-3 .6 2 .6 3.4 2.4 3.4 4.6 0 2.6-2 4.7-4.7 4.7-2 0-4-1.5-4.5-3.4-.3.8-.5 2-.5 3 0 5.2 4.2 9.4 9.4 9.4s9.5-4.2 9.5-9.4-4.4-9.5-9.6-9.5"/><path fill="none" stroke="#004B8D" stroke-width="4.4" stroke-linecap="round" stroke-linejoin="round" stroke-miterlimit="10" d="M43 59s3-13.2-12-16.5c-5.5-1-25.3-6.2-14.6-23.4 2.5-3.6 12-7.3 30.8 2.6 6.6 3.3 20.5 8.8 23.8-4.4l-1-14"/></svg>