<svg xmlns="http://www.w3.org/2000/svg" width="226.802" height="55.032" viewBox="0 0 226.802 55.032">
  <path d="M105.478 8.698c2.408-2.082 3.573-2.644 5.004-3.072 1.428-.43 9.08-1.215 11.438 1.572 2.357 2.79 3.858 4.076 4.073 5.29.216 1.214 1.072 4.788.36 5.86-.717 1.074-3.505 6.22-5.22 7.293-1.718 1.08-5.13 2.97-9.938 2.86-3.288-.07-6.362-2.71-8.078-5.43-1.714-2.71-3.5-9.29 2.36-14.37m4.148 2c-2.073 1.29-3.574 3.86-3.717 5.08-.144 1.22.143 5.36 2.36 7.22 2.215 1.86 7.646 1.86 10.29-.64 2.21-2.09 3.913-4.47 3.075-8.08-.715-3.07-3.29-4.64-5.218-4.71-1.93-.07-4.145-.5-6.79 1.15"/>
  <path fill="#56A0D3" d="M102.906.336c-1.327.835-2.788 3.217-1.93 4.503.857 1.28 3.287 1.85 4.502 1.14 1.214-.72 1.716-3.43 1.214-4.51-.5-1.07-2.428-2-3.786-1.15m10.22 13.08c-1.062.26-2.442.62-2.932 2.78-.5 2.22.86 4.07 3.363 3.86 1.782-.15 3.43-2.29 3.216-3.93s-2.216-3.07-3.647-2.72M25.88 49.79c-.813-.15-2.035-.26-2.035-.26v-9.7c0-.383 0-1.588-2.885-1.805-1.59-.12-2.796.128-3.588.726 0 3.41-.006 10-.006 10l-2.005-.27v-18.3l2.02.26v5.78c1.36-.34 2.58-.51 3.64-.44.97.08 2.02.25 3.04.99 1.21.88 1.83 1.94 1.83 3.06v10.03M14.13 32.54L0 30.554v-2.397l14.122 1.985"/>
  <path fill="#56A0D3" d="M8.033 47.586l-2.203-.31V31.244l2.203.31"/>
  <path d="M221.934 54.987c-.15-.016-.303-.037-.458-.06-.826-.13-1.75-.365-2.676-.677-.893-.3-1.768-.633-2.603-.988l-.377-.164V50.56l.396.22c.15.085.225.126.375.208l.08.033c1.65.8 3.21 1.54 4.94 1.83.77.13 1.49.1 2.11-.09.72-.22 1.03-.58 1.03-1.21 0-1.07-.62-1.78-1.89-2.18-.4-.09-.82-.19-1.26-.28-.97-.22-1.98-.44-3-.7l-.05-.01c-1.75-.67-2.7-2.03-2.7-3.84 0-1.39.68-2.32 2-2.75.92-.3 2.04-.35 3.31-.15.57.09 1.38.27 2.27.52l.25.07c.83.23 1.49.41 1.93.51l.49.12-.14 2.86-.37-.22-.36-.21c-1.48-.85-2.88-1.38-4.15-1.58-.5-.08-.95-.12-1.33-.12-1.83-.01-1.83.85-1.83 1.27 0 .82.64 1.4 1.9 1.74.62.17 1.25.32 1.87.48.56.14 1.12.27 1.67.42.33.09.49.13.82.22l.04.02c1.64.71 2.686 2.36 2.66 4.2-.02 1.39-.68 2.34-1.97 2.81-.64.23-1.34.35-2.09.35-.26 0-.53-.02-.81-.05m-55.33-6.97c-1.15-.18-2.01-.46-2.6-.85-.82-.56-1.332-1.51-1.47-2.81-.04-.41-.01-9.8-.01-9.99.69.04 1.27.08 2.1.13v9.88c0 .31 0 1.23 2.4 1.63.378.06.805.11 1.266.14.73.05 1.7-.1 2.89-.5V34.83c.896.05 1.32.076 2.15.122v12.52l-.275.07c-.77.19-1.56.364-2.306.503-.954.176-1.76.21-2.43.166-.62-.04-1.2-.1-1.71-.19m-10.214-.29c-.14 0-.27-.01-.4-.02-3.82-.28-5.76-2.61-5.76-6.91 0-2.14.55-3.83 1.643-5 1.11-1.19 2.66-1.71 4.61-1.57 3.984.3 4.82 2.44 4.82 4.18 0 1.67-.88 3.63-5.086 3.48-.19 0-.39-.02-.6-.03-.83-.06-1.92-.23-3.24-.5-.01.07-.01.13-.01.19 0 1.16.35 2.09 1.06 2.86.72.77 1.57 1.17 2.59 1.25l.19.01c.97.03 2.31-.2 3.98-.71l.518-.15v2.61l-.32.05c-1.65.23-2.96.33-3.99.3m-3.78-8.66c.06.08.49.44 3.05.62.17.02.33.03.48.03 1.04.04 1.82-.08 2.31-.36.44-.24.65-.6.65-1.13 0-.72-.27-1.71-2.64-1.89-.86-.06-1.71.16-2.53.65-.88.54-1.31 1.23-1.32 2.1zM83.14 52.3c-.813 0-2.034.115-2.034.115V42.7c0-.383 0-1.588-2.885-1.273-1.58.172-2.79.643-3.58 1.386 0 3.404-.01 10-.01 10l-2.01.095V34.61l2.02-.12v5.777c1.36-.595 2.58-.993 3.64-1.106.98-.1 2.02-.12 3.04.43 1.22.66 1.84 1.61 1.84 2.72v10.03m51.23-4.47c-.86.12-1.84.2-2.9.21-1.69.02-2.87-.19-3.6-.58-1.18-.63-1.79-1.86-1.79-3.55 0-1.53.7-2.6 2.03-3.32.99-.53 2.22-.83 3.62-.84.9-.01 2.05.08 3.5.34l.02-1.58c.01-.45.02-1.87-3.21-1.84-1.09.01-2.66.39-4.64.94-.18.05-.27.08-.46.12V35.2l.38-.052c1.75-.244 3.43-.454 4.83-.565 2.61-.208 5.3 1.108 5.24 4v8.528c-.1.04-.16.07-.27.11-.75.3-1.67.51-2.72.66m-3.73-5.91c-.46.07-.89.2-1.26.37-.78.36-1.14.87-1.14 1.61 0 .93.39 1.55 1.19 1.82.41.14 1.27.21 2.54.2 1.29-.01 2.83-.12 2.83-.12.22-.02.35-.05.43-.08v-3.32c-1.11-.38-2.3-.55-3.56-.54-.36.01-.7.04-1.02.09zm76.76 10.42c-.86 0-1.83-.06-2.9-.2-1.69-.22-2.87-.59-3.6-1.08-1.18-.8-1.79-2.11-1.79-3.8 0-1.53.7-2.51 2.03-3.04.99-.39 2.21-.52 3.62-.34.9.12 2.05.36 3.5.83l.02-1.58c0-.44.01-1.86-3.21-2.29-1.09-.14-2.66.02-4.65.29l-.46.06v-2.55h.38c1.74 0 3.43.03 4.83.11 2.61.16 5.29 1.85 5.24 4.74v8.53l-.27.07c-.75.19-1.67.28-2.72.28m-3.73-6.43c-.46.01-.89.07-1.26.19-.78.25-1.143.71-1.143 1.45 0 .94.39 1.6 1.19 1.99.41.2 1.27.39 2.54.56 1.284.17 2.83.27 2.83.27.213.01.35-.01.43-.02V47.1c-1.11-.54-2.3-.88-3.56-1.044-.36-.046-.7-.067-1.02-.06zM96.76 51.23V38.64l.245-.115c2.27-1.06 3.99-1.078 4.91-1.14.1-.01.194-.015.278-.022.15-.012.395.003.79.02.39.017 1.414.043 2.32.13 0 1-.046 1.34-.046 2.343-.18-.017-.56-.072-.74-.092-1.22-.138-1.856-.197-2.405-.15-.67.053-1.887.125-3.227.648v10.816m45.25-3.518c-1.524-.118-2.822-.756-3.846-1.874-1.11-1.205-1.67-2.743-1.67-4.627 0-1.99.54-3.71 1.6-5.06 1.08-1.37 2.53-2.04 4.33-2.01.98.01 2.42.22 4.28.48l.34.04v2.63c-.2-.06-.3-.08-.49-.14-1.86-.52-3.25-.87-4.15-.88-1.16-.02-2.06.44-2.74 1.4-.65.91-.98 2.1-.98 3.48 0 1.27.34 2.31 1.02 3.1.67.77 1.54 1.17 2.64 1.18.99.01 2.43-.27 4.26-.98l.54-.22v2.61l-.28.08c-1.85.57-3.36.77-4.49.76-.14 0-.28-.01-.41-.02m48.7 3.06c-1.53-.26-2.82-1.01-3.85-2.21-1.11-1.31-1.67-2.89-1.67-4.78 0-1.99.54-3.66 1.6-4.91 1.08-1.27 2.54-1.81 4.33-1.63.98.1 2.43.43 4.29.85l.34.07v2.63c-.2-.07-.29-.11-.49-.18-1.85-.69-3.25-1.15-4.15-1.25-1.15-.11-2.06.26-2.74 1.16-.64.86-.97 2.02-.97 3.4 0 1.27.35 2.34 1.02 3.19.67.84 1.54 1.31 2.64 1.42 1 .11 2.44-.05 4.27-.6.22-.07.322-.1.54-.17v2.61l-.27.06c-1.85.41-3.36.48-4.48.364-.14-.01-.28-.03-.41-.05m-14.76-1.64c-.64-.155-1.21-.43-1.69-.79-.73-.554-1.14-1.3-1.14-2.24V30.5l2.15.188v4.81l4.672.386v2.118l-4.68-.41v7.96c0 1 .42 1.23.866 1.342.065.016.134.027.204.037.72.11 1.8-.01 3.2-.6.235-.1.35-.15.585-.26v2.53c-.09.04-.14.05-.23.08-1.48.49-2.615.52-3.466.4-.16-.02-.32-.05-.472-.09m36.075 4.53l-2.16-.22V35l2.16.226m-28.36 14.51l-2.16-.19v-13.52l2.16.19m.043-3.613c0 .64-.51 1.108-1.148 1.05-.64-.06-1.15-.613-1.15-1.25s.51-1.1 1.14-1.044c.63.05 1.144.61 1.144 1.24M59.16 53.07l-2.28-.04V34.99l2.28-.14"/>
  <path d="M62.91 46.05c-2.507-.043-4.647-.535-4.81-.574l.417-1.905-.208.96.2-.95c1.83.43 7.11 1.16 9.51-.59.77-.56 1.18-1.33 1.25-2.36.06-.91-.2-1.64-.81-2.22-2.23-2.11-8.34-1.64-10.51-1.36L56.92 35c.355-.047 9.513-1.198 12.883 1.997 1.04.986 1.533 2.306 1.423 3.807-.12 1.61-.805 2.88-2.04 3.78-1.673 1.22-4.118 1.52-6.288 1.48"/>
  <path fill="#56A0D3" d="M33.466 50.896c-.138-.014-.27-.03-.4-.05-3.824-.554-5.763-3.014-5.763-7.313 0-2.146.554-3.79 1.647-4.886 1.112-1.108 2.66-1.53 4.608-1.248 3.985.57 4.822 2.77 4.822 4.51 0 1.66-.883 3.56-5.086 3.12-.192-.02-.39-.05-.594-.08-.83-.12-1.917-.37-3.24-.73-.007.06-.01.12-.01.18 0 1.15.348 2.11 1.063 2.92.72.81 1.564 1.28 2.583 1.43.063.01.127.01.192.02.97.1 2.308-.04 3.98-.43l.516-.12v2.61l-.323.02c-1.65.12-2.95.12-3.99.02m-3.78-8.92c.06.08.49.47 3.05.83l.49.06c1.04.11 1.82.04 2.31-.2.44-.22.65-.57.65-1.09 0-.73-.27-1.73-2.64-2.08-.85-.12-1.71.03-2.52.47-.88.48-1.31 1.13-1.31 2zm17.54 10.37c-.86.01-1.83-.03-2.9-.15-1.69-.2-2.87-.54-3.6-1.02-1.18-.78-1.79-2.08-1.79-3.77 0-1.54.7-2.53 2.04-3.08.99-.41 2.21-.56 3.62-.41.9.1 2.05.32 3.5.77l.02-1.59c.01-.45.02-1.87-3.21-2.24-1.09-.12-2.66.07-4.64.37-.18.03-.27.04-.46.07v-2.53c.15 0 .23 0 .38-.01 1.75-.03 3.43-.04 4.83.02 2.61.11 5.29 1.75 5.24 4.64v8.52c-.11.03-.16.04-.27.07-.76.2-1.67.3-2.73.32m-3.74-6.36c-.46.01-.89.08-1.26.21-.78.26-1.15.73-1.15 1.47 0 .93.39 1.59 1.19 1.96.41.19 1.27.36 2.54.5 1.29.15 2.83.22 2.84.22.22 0 .35-.015.43-.03V47c-1.11-.522-2.3-.84-3.55-.98-.36-.046-.7-.06-1.02-.048z"/>
  <path d="M92.408 51.657c-.86.135-1.837.227-2.9.252-1.692.04-2.87-.14-3.6-.52-1.182-.62-1.792-1.83-1.792-3.52 0-1.54.695-2.62 2.032-3.36.987-.55 2.21-.87 3.613-.91.9-.03 2.05.04 3.5.28l.02-1.59c.01-.45.02-1.87-3.21-1.79-1.09.03-2.66.44-4.64 1.02-.18.05-.27.08-.46.13v-2.54c.15-.02.23-.04.38-.06 1.75-.28 3.43-.52 4.83-.65 2.61-.26 5.29 1.01 5.24 3.91v8.52l-.27.11c-.75.3-1.67.53-2.72.7m-3.74-5.84c-.46.08-.89.21-1.26.39-.78.37-1.14.89-1.14 1.63 0 .93.39 1.53 1.19 1.79.41.13 1.27.18 2.54.15 1.29-.04 2.83-.18 2.83-.18.22-.03.35-.06.43-.09v-3.3c-1.11-.37-2.3-.52-3.55-.49-.36.01-.7.04-1.02.1zm17.94 4.38V37.76c1.04-.387 1.56-.57 2.59-.92.97-.33 1.76-.513 2.43-.578 1.45-.14 2.79.202 3.96.995 1.1-.98 2.5-1.545 4.16-1.708 1.24-.12 2.35.1 3.28.66 1.11.65 1.68 1.66 1.68 3.02v9.37l-2.15.19.02-9.25c0-.7-.28-1.2-.87-1.53-.53-.31-1.16-.42-1.86-.35-3.19.31-3.19 1.57-3.19 1.99v9.65l-2.14.18v-9.71c0-.33-.11-.84-1-1.19-.57-.23-1.22-.31-1.87-.25-.73.07-1.7.38-2.88.94V50"/>
</svg>
